<?xml version="1.0" encoding="UTF-8"?>
<!-- Generator: Adobe Illustrator 17.1.0, SVG Export Plug-In . SVG Version: 6.00 Build 0)  -->
<!DOCTYPE svg PUBLIC "-//W3C//DTD SVG 1.1//EN" "http://www.w3.org/Graphics/SVG/1.1/DTD/svg11.dtd">
<svg version="1.1" id="Layer_1" xmlns="http://www.w3.org/2000/svg" xmlns:xlink="http://www.w3.org/1999/xlink" x="0px" y="0px" viewBox="-2.8 0 53.2 62" enable-background="new -2.8 0 53.2 62" xml:space="preserve">
<title>Page 1</title>
<desc>Created with Sketch.</desc>
<g>
	<path fill="#DEB807" d="M37.8,47.4l3.2,0.8c4.5-5.1,8.1-12,8.1-20.9v-4.5l-3-1.8l3-1.8V7c-2-2-12.4-3.2-23.2-3.4l-2,3.4l-2-3.5   C11.2,3.6,1,4.7-1.3,7v12.4l3,1.8l-3,1.8v4.5c0,8.9,3.6,15.8,8.1,20.9l3.2-0.8l-0.9,3.3c6.9,6.6,14.8,9.5,14.8,9.5   s7.8-2.9,14.8-9.5L37.8,47.4"/>
	<path fill="#FFFFFF" d="M25.9,54.1v-2.7c0-0.4,0-1.3,0-1.6c-0.1,0.3-0.3,0.8-0.5,1.2l-1.5,3.2l-1.5-3.2c-0.2-0.4-0.4-0.9-0.5-1.2   c0,0.3,0,1.2,0,1.6v2.7h-1.4v-7.2h1.4l1.5,3.3c0.2,0.4,0.4,1,0.5,1.2c0.1-0.3,0.3-0.8,0.5-1.2l1.5-3.3h1.4v7.2H25.9"/>
	<path fill="#FFFFFF" d="M25.9,46.9l-1.5,3.3c-0.2,0.4-0.4,0.9-0.5,1.2c0,0,0,2.9,0,2.9l1.5-3.2c0.2-0.4,0.4-0.9,0.5-1.2   c0,0.3,0,1.2,0,1.6v2.7h1.4v-7.2L25.9,46.9"/>
	<polyline fill="#FFFFFF" points="42.2,22.4 30.9,30.7 35.2,44.1 23.8,35.8 12.5,44.1 16.8,30.7 5.5,22.4 19.5,22.4 23.8,9.1    28.2,22.4 42.2,22.4  "/>
	<polyline fill="#756764" points="24,54.1 24,54.1 24.4,53.3 24,54.1  "/>
	<path fill="#FFFFFF" d="M24,54.1v-2.9c0.1-0.3,0.3-0.7,0.5-1.1l1.5-3.3h1.4v7.2h-1.4v-2.7c0-0.4,0-1.3,0-1.6   c-0.1,0.3-0.3,0.8-0.5,1.2L24,54.1"/>
</g>
</svg>